999
dxflib 3.26.4.0
  0
SECTION
  2
HEADER
  9
$ACADVER
  1
AC1015
  9
$HANDSEED
  5
FFFF
  9
$DIMADEC
 70
0
  9
$DIMASZ
 40
2.5
  9
$DIMATFIT
 70
0
  9
$DIMAUNIT
 70
0
  9
$DIMAZIN
 70
0
  9
$DIMBLK
  1
0
  9
$DIMBLK1
  1
0
  9
$DIMBLK2
  1
0
  9
$DIMDEC
 70
4
  9
$DIMDLI
 40
5.0
  9
$DIMDSEP
 70
46
  9
$DIMEXE
 40
1.25
  9
$DIMEXO
 40
0.625
  9
$DIMGAP
 40
0.625
  9
$DIMLFAC
 40
1.0
  9
$DIMLUNIT
 70
2
  9
$DIMSCALE
 40
1.0
  9
$DIMTAD
 70
1
  9
$DIMTIH
 70
0
  9
$DIMTSZ
 40
0.0
  9
$DIMTXT
 40
2.5
  9
$DIMZIN
 70
0
  9
$DWGCODEPAGE
  3
ANSI_1252
  9
$INSUNITS
 70
4
  9
$LTSCALE
 40
1.0
  9
$MAXACTVP
 70
64
  9
$MEASUREMENT
 70
1
  9
$MIRRTEXT
 70
0
  9
$PDMODE
 70
0
  9
$PDSIZE
 40
0.0
  0
ENDSEC
  0
SECTION
  2
TABLES
  0
TABLE
  2
VPORT
  5
8
100
AcDbSymbolTable
 70
1
  0
VPORT
  5
30
100
AcDbSymbolTableRecord
100
AcDbViewportTableRecord
  2
*Active
 70
0
 10
0.0
 20
0.0
 11
1.0
 21
1.0
 12
286.3055555555554861
 22
148.5
 13
0.0
 23
0.0
 14
10.0
 24
10.0
 15
10.0
 25
10.0
 16
0.0
 26
0.0
 36
1.0
 17
0.0
 27
0.0
 37
0.0
 40
297.0
 41
1.92798353909465
 42
50.0
 43
0.0
 44
0.0
 50
0.0
 51
0.0
 71
0
 72
100
 73
1
 74
3
 75
1
 76
1
 77
0
 78
0
281
0
 65
1
110
0.0
120
0.0
130
0.0
111
1.0
121
0.0
131
0.0
112
0.0
122
1.0
132
0.0
 79
0
146
0.0
  0
ENDTAB
  0
TABLE
  2
LTYPE
  5
5
100
AcDbSymbolTable
 70
41
  0
LTYPE
  5
16
100
AcDbSymbolTableRecord
100
AcDbLinetypeTableRecord
  2
Continuous
 70
0
  3
Solid line
 72
65
 73
0
 40
0.0
  0
LTYPE
  5
31
100
AcDbSymbolTableRecord
100
AcDbLinetypeTableRecord
  2
BORDER
 70
0
  3
Border __ __ . __ __ . __ __ . __ __ . __ __ .
 72
65
 73
6
 40
44.4499999999999957
 49
12.6999999999999993
 74
0
 49
-6.3499999999999996
 74
0
 49
12.6999999999999993
 74
0
 49
-6.2999999999999998
 74
0
 49
0.1
 74
0
 49
-6.2999999999999998
 74
0
  0
LTYPE
  5
32
100
AcDbSymbolTableRecord
100
AcDbLinetypeTableRecord
  2
DASHEDX2
 70
0
  3
Dashed (2x) ____  ____  ____  ____  ____  ___
 72
65
 73
2
 40
38.0999999999999943
 49
25.3999999999999986
 74
0
 49
-12.6999999999999993
 74
0
  0
LTYPE
  5
33
100
AcDbSymbolTableRecord
100
AcDbLinetypeTableRecord
  2
DIVIDEX2
 70
0
  3
Divide (2x) ________  .  .  ________  .  .  _
 72
65
 73
6
 40
63.5
 49
25.3999999999999986
 74
0
 49
-12.6499999999999986
 74
0
 49
0.1
 74
0
 49
-12.5999999999999979
 74
0
 49
0.1
 74
0
 49
-12.6499999999999986
 74
0
  0
LTYPE
  5
34
100
AcDbSymbolTableRecord
100
AcDbLinetypeTableRecord
  2
BORDERX2
 70
0
  3
Border (2x) ____  ____  .  ____  ____  .  ___
 72
65
 73
6
 40
88.8999999999999773
 49
25.3999999999999986
 74
0
 49
-12.6999999999999993
 74
0
 49
25.3999999999999986
 74
0
 49
-12.6499999999999986
 74
0
 49
0.1
 74
0
 49
-12.6499999999999986
 74
0
  0
LTYPE
  5
35
100
AcDbSymbolTableRecord
100
AcDbLinetypeTableRecord
  2
BORDER2
 70
0
  3
Border (.5x) __.__.__.__.__.__.__.__.__.__.__.
 72
65
 73
6
 40
22.2250000000000014
 49
6.3499999999999996
 74
0
 49
-3.1749999999999998
 74
0
 49
6.3499999999999996
 74
0
 49
-3.125
 74
0
 49
0.1
 74
0
 49
-3.125
 74
0
  0
LTYPE
  5
36
100
AcDbSymbolTableRecord
100
AcDbLinetypeTableRecord
  2
ACAD_ISO06W100
 70
0
  3
ISO long-dash triple-dot ____ ... ____ ... ____
 72
65
 73
8
 40
36.0000000000000071
 49
24.0
 74
0
 49
-2.9500000000000002
 74
0
 49
0.1
 74
0
 49
-2.9000000000000004
 74
0
 49
0.1
 74
0
 49
-2.9000000000000004
 74
0
 49
0.1
 74
0
 49
-2.9500000000000002
 74
0
  0
LTYPE
  5
37
100
AcDbSymbolTableRecord
100
AcDbLinetypeTableRecord
  2
DIVIDE
 70
0
  3
Divide ____ . . ____ . . ____ . . ____ . . ____
 72
65
 73
6
 40
31.7500000000000036
 49
12.6999999999999993
 74
0
 49
-6.2999999999999998
 74
0
 49
0.1
 74
0
 49
-6.25
 74
0
 49
0.1
 74
0
 49
-6.2999999999999998
 74
0
  0
LTYPE
  5
38
100
AcDbSymbolTableRecord
100
AcDbLinetypeTableRecord
  2
DASHDOT2
 70
0
  3
Dash dot (.5x) _._._._._._._._._._._._._._._.
 72
65
 73
4
 40
12.6999999999999993
 49
6.3499999999999996
 74
0
 49
-3.125
 74
0
 49
0.1
 74
0
 49
-3.125
 74
0
  0
LTYPE
  5
39
100
AcDbSymbolTableRecord
100
AcDbLinetypeTableRecord
  2
CENTERX2
 70
0
  3
Center (2x) ________  __  ________  __  _____
 72
65
 73
4
 40
101.6000000000000085
 49
63.5
 74
0
 49
-12.6999999999999993
 74
0
 49
12.6999999999999993
 74
0
 49
-12.6999999999999993
 74
0
  0
LTYPE
  5
3A
100
AcDbSymbolTableRecord
100
AcDbLinetypeTableRecord
  2
DOT
 70
0
  3
Dot . . . . . . . . . . . . . . . . . . . . . . . .
 72
65
 73
2
 40
6.3499999999999996
 49
0.1
 74
0
 49
-6.25
 74
0
  0
LTYPE
  5
3B
100
AcDbSymbolTableRecord
100
AcDbLinetypeTableRecord
  2
DASHDOT
 70
0
  3
Dash dot __ . __ . __ . __ . __ . __ . __ . __
 72
65
 73
4
 40
25.4000000000000021
 49
12.6999999999999993
 74
0
 49
-6.2999999999999998
 74
0
 49
0.1
 74
0
 49
-6.2999999999999998
 74
0
  0
LTYPE
  5
3C
100
AcDbSymbolTableRecord
100
AcDbLinetypeTableRecord
  2
ACAD_ISO09W100
 70
0
  3
ISO long-dash double-short-dash ____ __ __ ____
 72
65
 73
6
 40
45.0
 49
24.0
 74
0
 49
-3.0
 74
0
 49
6.0
 74
0
 49
-3.0
 74
0
 49
6.0
 74
0
 49
-3.0
 74
0
  0
LTYPE
  5
3D
100
AcDbSymbolTableRecord
100
AcDbLinetypeTableRecord
  2
CENTER
 70
0
  3
Center ____ _ ____ _ ____ _ ____ _ ____ _ ____
 72
65
 73
4
 40
50.8000000000000043
 49
31.75
 74
0
 49
-6.3499999999999996
 74
0
 49
6.3499999999999996
 74
0
 49
-6.3499999999999996
 74
0
  0
LTYPE
  5
3E
100
AcDbSymbolTableRecord
100
AcDbLinetypeTableRecord
  2
ACAD_ISO10W100
 70
0
  3
ISO dash dot __ . __ . __ . __ . __ . __ . __ . 
 72
65
 73
4
 40
18.0
 49
12.0
 74
0
 49
-2.9500000000000002
 74
0
 49
0.1
 74
0
 49
-2.9500000000000002
 74
0
  0
LTYPE
  5
3F
100
AcDbSymbolTableRecord
100
AcDbLinetypeTableRecord
  2
CENTER2
 70
0
  3
Center (.5x) ___ _ ___ _ ___ _ ___ _ ___ _ ___
 72
65
 73
4
 40
28.5750000000000028
 49
19.0500000000000007
 74
0
 49
-3.1749999999999998
 74
0
 49
3.1749999999999998
 74
0
 49
-3.1749999999999998
 74
0
  0
LTYPE
  5
40
100
AcDbSymbolTableRecord
100
AcDbLinetypeTableRecord
  2
DIVIDE2
 70
0
  3
Divide (.5x) __..__..__..__..__..__..__..__.._
 72
65
 73
6
 40
15.8749999999999982
 49
6.3499999999999996
 74
0
 49
-3.125
 74
0
 49
0.1
 74
0
 49
-3.0750000000000002
 74
0
 49
0.1
 74
0
 49
-3.125
 74
0
  0
LTYPE
  5
41
100
AcDbSymbolTableRecord
100
AcDbLinetypeTableRecord
  2
PHANTOM
 70
0
  3
Phantom ______  __  __  ______  __  __  ______ 
 72
65
 73
6
 40
63.5000000000000071
 49
31.75
 74
0
 49
-6.3499999999999996
 74
0
 49
6.3499999999999996
 74
0
 49
-6.3499999999999996
 74
0
 49
6.3499999999999996
 74
0
 49
-6.3499999999999996
 74
0
  0
LTYPE
  5
42
100
AcDbSymbolTableRecord
100
AcDbLinetypeTableRecord
  2
DASHED2
 70
0
  3
Dashed (.5x) _ _ _ _ _ _ _ _ _ _ _ _ _ _ _ _ _ 
 72
65
 73
2
 40
9.5249999999999986
 49
6.3499999999999996
 74
0
 49
-3.1749999999999998
 74
0
  0
LTYPE
  5
43
100
AcDbSymbolTableRecord
100
AcDbLinetypeTableRecord
  2
DOT2
 70
0
  3
Dot (.5x) ........................................
 72
65
 73
2
 40
3.1749999999999998
 49
0.1
 74
0
 49
-3.0749999999999997
 74
0
  0
LTYPE
  5
44
100
AcDbSymbolTableRecord
100
AcDbLinetypeTableRecord
  2
DASHED
 70
0
  3
Dashed __ __ __ __ __ __ __ __ __ __ __ __ __ _
 72
65
 73
2
 40
19.0499999999999972
 49
12.6999999999999993
 74
0
 49
-6.3499999999999996
 74
0
  0
LTYPE
  5
45
100
AcDbSymbolTableRecord
100
AcDbLinetypeTableRecord
  2
ACAD_ISO13W100
 70
0
  3
ISO double-dash double-dot __ __ . . __ __ . . _
 72
65
 73
8
 40
36.0000000000000071
 49
12.0
 74
0
 49
-3.0
 74
0
 49
12.0
 74
0
 49
-2.9500000000000002
 74
0
 49
0.1
 74
0
 49
-2.9000000000000004
 74
0
 49
0.1
 74
0
 49
-2.9500000000000002
 74
0
  0
LTYPE
  5
46
100
AcDbSymbolTableRecord
100
AcDbLinetypeTableRecord
  2
DOTX2
 70
0
  3
Dot (2x) .  .  .  .  .  .  .  .  .  .  .  .  .  .
 72
65
 73
2
 40
12.6999999999999993
 49
0.1
 74
0
 49
-12.5999999999999996
 74
0
  0
LTYPE
  5
47
100
AcDbSymbolTableRecord
100
AcDbLinetypeTableRecord
  2
ACAD_ISO03W100
 70
0
  3
ISO dash space __    __    __    __    __    __
 72
65
 73
2
 40
30.0
 49
12.0
 74
0
 49
-18.0
 74
0
  0
LTYPE
  5
48
100
AcDbSymbolTableRecord
100
AcDbLinetypeTableRecord
  2
ACAD_ISO02W100
 70
0
  3
ISO dash __ __ __ __ __ __ __ __ __ __ __ __ __
 72
65
 73
2
 40
15.0
 49
12.0
 74
0
 49
-3.0
 74
0
  0
LTYPE
  5
49
100
AcDbSymbolTableRecord
100
AcDbLinetypeTableRecord
  2
HIDDEN
 70
0
  3
Hidden __ __ __ __ __ __ __ __ __ __ __ __ __ __
 72
65
 73
2
 40
9.5249999999999986
 49
6.3499999999999996
 74
0
 49
-3.1749999999999998
 74
0
  0
LTYPE
  5
4A
100
AcDbSymbolTableRecord
100
AcDbLinetypeTableRecord
  2
ACAD_ISO12W100
 70
0
  3
ISO dash double-dot __ . . __ . . __ . . __ . . 
 72
65
 73
6
 40
21.0
 49
12.0
 74
0
 49
-2.9500000000000002
 74
0
 49
0.1
 74
0
 49
-2.9000000000000004
 74
0
 49
0.1
 74
0
 49
-2.9500000000000002
 74
0
  0
LTYPE
  5
4B
100
AcDbSymbolTableRecord
100
AcDbLinetypeTableRecord
  2
ACAD_ISO05W100
 70
0
  3
ISO long-dash double-dot ____ .. ____ .. ____ . 
 72
65
 73
6
 40
33.0000000000000071
 49
24.0
 74
0
 49
-2.9500000000000002
 74
0
 49
0.1
 74
0
 49
-2.9000000000000004
 74
0
 49
0.1
 74
0
 49
-2.9500000000000002
 74
0
  0
LTYPE
  5
14
100
AcDbSymbolTableRecord
100
AcDbLinetypeTableRecord
  2
BYBLOCK
 70
0
  3

 72
65
 73
0
 40
0.0
  0
LTYPE
  5
4C
100
AcDbSymbolTableRecord
100
AcDbLinetypeTableRecord
  2
ACAD_ISO08W100
 70
0
  3
ISO long-dash short-dash ____ __ ____ __ ____ _
 72
65
 73
4
 40
36.0
 49
24.0
 74
0
 49
-3.0
 74
0
 49
6.0
 74
0
 49
-3.0
 74
0
  0
LTYPE
  5
4D
100
AcDbSymbolTableRecord
100
AcDbLinetypeTableRecord
  2
DASHDOTX2
 70
0
  3
Dash dot (2x) ____  .  ____  .  ____  .  ___
 72
65
 73
4
 40
50.7999999999999972
 49
25.3999999999999986
 74
0
 49
-12.6499999999999986
 74
0
 49
0.1
 74
0
 49
-12.6499999999999986
 74
0
  0
LTYPE
  5
4E
100
AcDbSymbolTableRecord
100
AcDbLinetypeTableRecord
  2
ACAD_ISO15W100
 70
0
  3
ISO double-dash triple-dot __ __ . . . __ __ . .
 72
65
 73
10
 40
39.0000000000000071
 49
12.0
 74
0
 49
-3.0
 74
0
 49
12.0
 74
0
 49
-2.9500000000000002
 74
0
 49
0.1
 74
0
 49
-2.9000000000000004
 74
0
 49
0.1
 74
0
 49
-2.9000000000000004
 74
0
 49
0.1
 74
0
 49
-2.9500000000000002
 74
0
  0
LTYPE
  5
4F
100
AcDbSymbolTableRecord
100
AcDbLinetypeTableRecord
  2
HIDDEN2
 70
0
  3
Hidden (.5x) _ _ _ _ _ _ _ _ _ _ _ _ _ _ _ _ _ 
 72
65
 73
2
 40
4.7624999999999993
 49
3.1749999999999998
 74
0
 49
-1.5874999999999999
 74
0
  0
LTYPE
  5
50
100
AcDbSymbolTableRecord
100
AcDbLinetypeTableRecord
  2
ACAD_ISO14W100
 70
0
  3
ISO dash triple-dot __ . . . __ . . . __ . . . _
 72
65
 73
8
 40
24.0000000000000036
 49
12.0
 74
0
 49
-2.9500000000000002
 74
0
 49
0.1
 74
0
 49
-2.9000000000000004
 74
0
 49
0.1
 74
0
 49
-2.9000000000000004
 74
0
 49
0.1
 74
0
 49
-2.9500000000000002
 74
0
  0
LTYPE
  5
15
100
AcDbSymbolTableRecord
100
AcDbLinetypeTableRecord
  2
BYLAYER
 70
0
  3

 72
65
 73
0
 40
0.0
  0
LTYPE
  5
51
100
AcDbSymbolTableRecord
100
AcDbLinetypeTableRecord
  2
HIDDENX2
 70
0
  3
Hidden (2x) ____ ____ ____ ____ ____ ____ ____ 
 72
65
 73
2
 40
19.0499999999999972
 49
12.6999999999999993
 74
0
 49
-6.3499999999999996
 74
0
  0
LTYPE
  5
52
100
AcDbSymbolTableRecord
100
AcDbLinetypeTableRecord
  2
ACAD_ISO11W100
 70
0
  3
ISO double-dash dot __ __ . __ __ . __ __ . __ _
 72
65
 73
6
 40
33.0
 49
12.0
 74
0
 49
-3.0
 74
0
 49
12.0
 74
0
 49
-2.9500000000000002
 74
0
 49
0.1
 74
0
 49
-2.9500000000000002
 74
0
  0
LTYPE
  5
53
100
AcDbSymbolTableRecord
100
AcDbLinetypeTableRecord
  2
ACAD_ISO04W100
 70
0
  3
ISO long-dash dot ____ . ____ . ____ . ____ . _
 72
65
 73
4
 40
30.0
 49
24.0
 74
0
 49
-2.9500000000000002
 74
0
 49
0.1
 74
0
 49
-2.9500000000000002
 74
0
  0
LTYPE
  5
54
100
AcDbSymbolTableRecord
100
AcDbLinetypeTableRecord
  2
PHANTOMX2
 70
0
  3
Phantom (2x) ____________    ____    ____   _
 72
65
 73
6
 40
127.0000000000000142
 49
63.5
 74
0
 49
-12.6999999999999993
 74
0
 49
12.6999999999999993
 74
0
 49
-12.6999999999999993
 74
0
 49
12.6999999999999993
 74
0
 49
-12.6999999999999993
 74
0
  0
LTYPE
  5
55
100
AcDbSymbolTableRecord
100
AcDbLinetypeTableRecord
  2
ACAD_ISO07W100
 70
0
  3
ISO dot . . . . . . . . . . . . . . . . . . . . 
 72
65
 73
2
 40
3.0
 49
0.1
 74
0
 49
-2.8999999999999999
 74
0
  0
LTYPE
  5
56
100
AcDbSymbolTableRecord
100
AcDbLinetypeTableRecord
  2
PHANTOM2
 70
0
  3
Phantom (.5x) ___ _ _ ___ _ _ ___ _ _ ___ _ _
 72
65
 73
6
 40
31.7500000000000036
 49
15.875
 74
0
 49
-3.1749999999999998
 74
0
 49
3.1749999999999998
 74
0
 49
-3.1749999999999998
 74
0
 49
3.1749999999999998
 74
0
 49
-3.1749999999999998
 74
0
  0
ENDTAB
  0
TABLE
  2
LAYER
  5
2
100
AcDbSymbolTable
 70
3
  0
LAYER
  5
57
100
AcDbSymbolTableRecord
100
AcDbLayerTableRecord
  2
circuits
 70
0
 62
1
420
16711680
  6
Continuous
370
25
390
F
  0
LAYER
  5
58
100
AcDbSymbolTableRecord
100
AcDbLayerTableRecord
  2
sizes
 70
0
 62
6
420
16711935
  6
Continuous
370
25
390
F
  0
LAYER
  5
10
100
AcDbSymbolTableRecord
100
AcDbLayerTableRecord
  2
0
 70
1
 62
7
420
16777215
  6
Continuous
370
25
390
F
  0
ENDTAB
  0
TABLE
  2
STYLE
  5
3
100
AcDbSymbolTable
 70
1
  0
STYLE
  5
59
100
AcDbSymbolTableRecord
100
AcDbTextStyleTableRecord
  2
Standard
 70
0
 40
0.0
 41
1.0
 50
0.0
 71
0
 42
2.5
  3

  4

1001
ACAD
1000
txt
1071
0
  0
ENDTAB
  0
TABLE
  2
VIEW
  5
6
100
AcDbSymbolTable
 70
0
  0
ENDTAB
  0
TABLE
  2
UCS
  5
7
100
AcDbSymbolTable
 70
0
  0
ENDTAB
  0
TABLE
  2
APPID
  5
9
100
AcDbSymbolTable
 70
1
  0
APPID
  5
12
100
AcDbSymbolTableRecord
100
AcDbRegAppTableRecord
  2
ACAD
 70
0
  0
APPID
  5
5A
100
AcDbSymbolTableRecord
100
AcDbRegAppTableRecord
  2
QCAD
 70
0
  0
ENDTAB
  0
TABLE
  2
DIMSTYLE
  5
A
100
AcDbSymbolTable
 70
1
100
AcDbDimStyleTable
 71
0
  0
DIMSTYLE
105
27
100
AcDbSymbolTableRecord
100
AcDbDimStyleTableRecord
  2
Standard
 41
2.5
 42
0.625
 43
3.75
 44
1.25
 70
0
 73
0
 74
0
 77
1
 78
8
140
2.5
141
2.5
143
0.03937007874016
147
0.625
171
3
172
1
271
2
272
2
274
3
278
44
283
0
284
8
340
59
  0
ENDTAB
  0
TABLE
  2
BLOCK_RECORD
  5
1
100
AcDbSymbolTable
 70
1
  0
BLOCK_RECORD
  5
1F
100
AcDbSymbolTableRecord
100
AcDbBlockTableRecord
  2
*Model_Space
340
22
  0
BLOCK_RECORD
  5
1B
100
AcDbSymbolTableRecord
100
AcDbBlockTableRecord
  2
*Paper_Space
340
1E
  0
BLOCK_RECORD
  5
23
100
AcDbSymbolTableRecord
100
AcDbBlockTableRecord
  2
*Paper_Space0
340
26
  0
BLOCK_RECORD
  5
5B
100
AcDbSymbolTableRecord
100
AcDbBlockTableRecord
  2
pwr-supply
340
0
  0
BLOCK_RECORD
  5
5C
100
AcDbSymbolTableRecord
100
AcDbBlockTableRecord
  2
ctrl-board
340
0
  0
BLOCK_RECORD
  5
5D
100
AcDbSymbolTableRecord
100
AcDbBlockTableRecord
  2
raspi
340
0
  0
ENDTAB
  0
ENDSEC
  0
SECTION
  2
BLOCKS
  0
BLOCK
  5
20
100
AcDbEntity
  8
0
100
AcDbBlockBegin
  2
*Model_Space
 70
0
 10
0.0
 20
0.0
 30
0.0
  3
*Model_Space
  1

  0
ENDBLK
  5
21
100
AcDbEntity
  8
0
100
AcDbBlockEnd
  0
BLOCK
  5
1C
100
AcDbEntity
 67
1
  8
0
100
AcDbBlockBegin
  2
*Paper_Space
 70
0
 10
0.0
 20
0.0
 30
0.0
  3
*Paper_Space
  1

  0
ENDBLK
  5
1D
100
AcDbEntity
 67
1
  8
0
100
AcDbBlockEnd
  0
BLOCK
  5
24
100
AcDbEntity
  8
0
100
AcDbBlockBegin
  2
*Paper_Space0
 70
0
 10
0.0
 20
0.0
 30
0.0
  3
*Paper_Space0
  1

  0
ENDBLK
  5
25
100
AcDbEntity
  8
0
100
AcDbBlockEnd
  0
BLOCK
  5
5E
100
AcDbEntity
  8
0
100
AcDbBlockBegin
  2
pwr-supply
 70
0
 10
0.0
 20
0.0
 30
0.0
  3
pwr-supply
  1

  0
LINE
  5
5F
100
AcDbEntity
  8
circuits
 62
256
370
-1
 48
1.0
  6
BYLAYER
100
AcDbLine
 10
-18.75
 20
-43.0
 30
0.0
 11
18.75
 21
-43.0
 31
0.0
  0
LINE
  5
60
100
AcDbEntity
  8
circuits
 62
256
370
-1
 48
1.0
  6
BYLAYER
100
AcDbLine
 10
18.75
 20
-43.0
 30
0.0
 11
18.75
 21
43.0
 31
0.0
  0
LINE
  5
61
100
AcDbEntity
  8
circuits
 62
256
370
-1
 48
1.0
  6
BYLAYER
100
AcDbLine
 10
18.75
 20
43.0
 30
0.0
 11
-18.75
 21
43.0
 31
0.0
  0
LINE
  5
62
100
AcDbEntity
  8
circuits
 62
256
370
-1
 48
1.0
  6
BYLAYER
100
AcDbLine
 10
-18.75
 20
43.0
 30
0.0
 11
-18.75
 21
-43.0
 31
0.0
  0
CIRCLE
  5
63
100
AcDbEntity
  8
circuits
 62
256
370
-1
 48
1.0
  6
BYLAYER
100
AcDbCircle
 10
-13.75
 20
38.0
 30
0.0
 40
2.5
  0
CIRCLE
  5
64
100
AcDbEntity
  8
circuits
 62
256
370
-1
 48
1.0
  6
BYLAYER
100
AcDbCircle
 10
13.75
 20
38.0
 30
0.0
 40
2.5
  0
CIRCLE
  5
65
100
AcDbEntity
  8
circuits
 62
256
370
-1
 48
1.0
  6
BYLAYER
100
AcDbCircle
 10
-13.75
 20
-38.0
 30
0.0
 40
2.5
  0
CIRCLE
  5
66
100
AcDbEntity
  8
circuits
 62
256
370
-1
 48
1.0
  6
BYLAYER
100
AcDbCircle
 10
13.75
 20
-38.0
 30
0.0
 40
2.5
  0
LINE
  5
67
100
AcDbEntity
  8
circuits
 62
256
370
-1
 48
1.0
  6
BYLAYER
100
AcDbLine
 10
12.0700000000000003
 20
-22.1000000000000014
 30
0.0
 11
24.4200000000000017
 21
-22.1000000000000014
 31
0.0
  0
LINE
  5
68
100
AcDbEntity
  8
circuits
 62
256
370
-1
 48
1.0
  6
BYLAYER
100
AcDbLine
 10
-24.2999999999999972
 20
-5.4999999999999991
 30
0.0
 11
-11.949999999999994
 21
-5.4999999999999991
 31
0.0
  0
LINE
  5
69
100
AcDbEntity
  8
circuits
 62
256
370
-1
 48
1.0
  6
BYLAYER
100
AcDbLine
 10
24.4200000000000017
 20
-22.1000000000000014
 30
0.0
 11
24.4200000000000017
 21
-15.9500000000000028
 31
0.0
  0
LINE
  5
6A
100
AcDbEntity
  8
circuits
 62
256
370
-1
 48
1.0
  6
BYLAYER
100
AcDbLine
 10
-11.949999999999994
 20
-5.4999999999999991
 30
0.0
 11
-11.949999999999994
 21
0.6499999999999995
 31
0.0
  0
LINE
  5
6B
100
AcDbEntity
  8
circuits
 62
256
370
-1
 48
1.0
  6
BYLAYER
100
AcDbLine
 10
24.4200000000000017
 20
-15.9500000000000028
 30
0.0
 11
12.0700000000000003
 21
-15.9500000000000028
 31
0.0
  0
LINE
  5
6C
100
AcDbEntity
  8
circuits
 62
256
370
-1
 48
1.0
  6
BYLAYER
100
AcDbLine
 10
-11.949999999999994
 20
0.6499999999999995
 30
0.0
 11
-24.2999999999999972
 21
0.6499999999999995
 31
0.0
  0
LINE
  5
6D
100
AcDbEntity
  8
circuits
 62
256
370
-1
 48
1.0
  6
BYLAYER
100
AcDbLine
 10
12.0700000000000003
 20
-15.9500000000000028
 30
0.0
 11
12.0700000000000003
 21
-22.1000000000000014
 31
0.0
  0
LINE
  5
6E
100
AcDbEntity
  8
circuits
 62
256
370
-1
 48
1.0
  6
BYLAYER
100
AcDbLine
 10
-24.2999999999999972
 20
0.6499999999999995
 30
0.0
 11
-24.2999999999999972
 21
-5.4999999999999991
 31
0.0
  0
LINE
  5
6F
100
AcDbEntity
  8
circuits
 62
256
370
-1
 48
1.0
  6
BYLAYER
100
AcDbLine
 10
24.4200000000000017
 20
7.6499999999999986
 30
0.0
 11
24.4200000000000017
 21
16.2999999999999972
 31
0.0
  0
LINE
  5
70
100
AcDbEntity
  8
circuits
 62
256
370
-1
 48
1.0
  6
BYLAYER
100
AcDbLine
 10
24.4200000000000017
 20
16.2999999999999972
 30
0.0
 11
12.0700000000000003
 21
16.2999999999999972
 31
0.0
  0
LINE
  5
71
100
AcDbEntity
  8
circuits
 62
256
370
-1
 48
1.0
  6
BYLAYER
100
AcDbLine
 10
12.0700000000000003
 20
16.2999999999999972
 30
0.0
 11
12.0700000000000003
 21
7.6499999999999986
 31
0.0
  0
LINE
  5
72
100
AcDbEntity
  8
circuits
 62
256
370
-1
 48
1.0
  6
BYLAYER
100
AcDbLine
 10
24.4200000000000017
 20
7.6499999999999986
 30
0.0
 11
12.0700000000000021
 21
7.6499999999999986
 31
0.0
  0
DIMENSION
  5
73
100
AcDbEntity
  8
sizes
 62
256
370
-1
 48
1.0
  6
BYLAYER
100
AcDbDimension
 10
-18.75
 20
51.2681411100219577
 30
0.0
 11
0.0000000000000001
 21
53.1431411100219577
 31
0.0
 70
1
 71
8
 72
2
 74
0
 75
0
 41
1.0
 42
0.0
  1

  3
Standard
100
AcDbAlignedDimension
 13
-18.75
 23
43.0
 33
0.0
 14
18.75
 24
43.0
 34
0.0
1001
ACAD
1000
DSTYLE
1002
{
1070
144
1040
1.0
1070
40
1040
1.0
1002
}
  0
DIMENSION
  5
74
100
AcDbEntity
  8
sizes
 62
256
370
-1
 48
1.0
  6
BYLAYER
100
AcDbDimension
 10
16.25
 20
33.3757585973810009
 30
0.0
 11
24.2360610204934872
 21
35.2507585973810009
 31
0.0
 70
1
 71
8
 72
2
 74
0
 75
0
 41
1.0
 42
0.0
  1

  3
Standard
100
AcDbAlignedDimension
 13
16.25
 23
38.0
 33
0.0
 14
18.75
 24
38.0
 34
0.0
1001
ACAD
1000
DSTYLE
1002
{
1070
144
1040
1.0
1070
40
1040
1.0
1002
}
  0
DIMENSION
  5
75
100
AcDbEntity
  8
sizes
 62
256
370
-1
 48
1.0
  6
BYLAYER
100
AcDbDimension
 10
29.0
 20
40.5
 30
0.0
 11
27.125
 21
48.4860610204934872
 31
0.0
 70
1
 71
8
 72
2
 74
0
 75
0
 41
1.0
 42
0.0
  1

  3
Standard
100
AcDbAlignedDimension
 13
13.75
 23
40.5
 33
0.0
 14
13.75
 24
43.0
 34
0.0
1001
ACAD
1000
DSTYLE
1002
{
1070
144
1040
1.0
1070
40
1040
1.0
1002
}
  0
DIMENSION
  5
76
100
AcDbEntity
  8
sizes
 62
256
370
-1
 48
1.0
  6
BYLAYER
100
AcDbDimension
 10
-34.155812049416113
 20
-43.0
 30
0.0
 11
-36.030812049416113
 21
0.0000000000000002
 31
0.0
 70
1
 71
8
 72
2
 74
0
 75
0
 41
1.0
 42
0.0
  1

  3
Standard
100
AcDbAlignedDimension
 13
-18.75
 23
-43.0
 33
0.0
 14
-18.75
 24
43.0
 34
0.0
1001
ACAD
1000
DSTYLE
1002
{
1070
144
1040
1.0
1070
40
1040
1.0
1002
}
  0
DIMENSION
  5
77
100
AcDbEntity
  8
sizes
 62
256
370
-1
 48
1.0
  6
BYLAYER
100
AcDbDimension
 10
32.2408599505835696
 20
-43.0
 30
0.0
 11
30.3658599505835696
 21
-32.5499999999999972
 31
0.0
 70
1
 71
8
 72
2
 74
0
 75
0
 41
1.0
 42
0.0
  1

  3
Standard
100
AcDbAlignedDimension
 13
18.75
 23
-43.0
 33
0.0
 14
18.75
 24
-22.1000000000000014
 34
0.0
1001
ACAD
1000
DSTYLE
1002
{
1070
144
1040
1.0
1070
40
1040
1.0
1002
}
  0
DIMENSION
  5
78
100
AcDbEntity
  8
sizes
 62
256
370
-1
 48
1.0
  6
BYLAYER
100
AcDbDimension
 10
32.2408599505835696
 20
-15.9500000000000011
 30
0.0
 11
30.3658599505835696
 21
-4.1500000000000012
 31
0.0
 70
1
 71
8
 72
2
 74
0
 75
0
 41
1.0
 42
0.0
  1

  3
Standard
100
AcDbAlignedDimension
 13
18.75
 23
-15.9500000000000011
 33
0.0
 14
18.75
 24
7.6499999999999986
 34
0.0
1001
ACAD
1000
DSTYLE
1002
{
1070
144
1040
1.0
1070
40
1040
1.0
1002
}
  0
DIMENSION
  5
79
100
AcDbEntity
  8
sizes
 62
256
370
-1
 48
1.0
  6
BYLAYER
100
AcDbDimension
 10
-24.3000000000000007
 20
-43.0
 30
0.0
 11
-26.1749999999999972
 21
-24.25
 31
0.0
 70
1
 71
8
 72
2
 74
0
 75
0
 41
1.0
 42
0.0
  1

  3
Standard
100
AcDbAlignedDimension
 13
-18.75
 23
-43.0
 33
0.0
 14
-18.7499999999999964
 24
-5.4999999999999991
 34
0.0
1001
ACAD
1000
DSTYLE
1002
{
1070
144
1040
1.0
1070
40
1040
1.0
1002
}
  0
ENDBLK
  5
7A
100
AcDbEntity
  8
0
100
AcDbBlockEnd
  0
BLOCK
  5
7B
100
AcDbEntity
  8
0
100
AcDbBlockBegin
  2
ctrl-board
 70
0
 10
0.0
 20
0.0
 30
0.0
  3
ctrl-board
  1

  0
LINE
  5
7C
100
AcDbEntity
  8
circuits
 62
256
370
-1
 48
1.0
  6
BYLAYER
100
AcDbLine
 10
-45.7199999999999989
 20
-31.75
 30
0.0
 11
45.7199999999999989
 21
-31.75
 31
0.0
  0
LINE
  5
7D
100
AcDbEntity
  8
circuits
 62
256
370
-1
 48
1.0
  6
BYLAYER
100
AcDbLine
 10
45.7199999999999989
 20
-31.75
 30
0.0
 11
45.7199999999999989
 21
31.75
 31
0.0
  0
LINE
  5
7E
100
AcDbEntity
  8
circuits
 62
256
370
-1
 48
1.0
  6
BYLAYER
100
AcDbLine
 10
45.7199999999999989
 20
31.75
 30
0.0
 11
-45.7199999999999989
 21
31.75
 31
0.0
  0
LINE
  5
7F
100
AcDbEntity
  8
circuits
 62
256
370
-1
 48
1.0
  6
BYLAYER
100
AcDbLine
 10
-45.7199999999999989
 20
31.75
 30
0.0
 11
-45.7199999999999989
 21
-31.75
 31
0.0
  0
CIRCLE
  5
80
100
AcDbEntity
  8
circuits
 62
256
370
-1
 48
1.0
  6
BYLAYER
100
AcDbCircle
 10
-40.6400000000000006
 20
26.6700000000000017
 30
0.0
 40
2.5
  0
CIRCLE
  5
81
100
AcDbEntity
  8
circuits
 62
256
370
-1
 48
1.0
  6
BYLAYER
100
AcDbCircle
 10
40.6400000000000006
 20
26.6700000000000017
 30
0.0
 40
2.5
  0
CIRCLE
  5
82
100
AcDbEntity
  8
circuits
 62
256
370
-1
 48
1.0
  6
BYLAYER
100
AcDbCircle
 10
40.6400000000000006
 20
-26.6700000000000017
 30
0.0
 40
2.5
  0
CIRCLE
  5
83
100
AcDbEntity
  8
circuits
 62
256
370
-1
 48
1.0
  6
BYLAYER
100
AcDbCircle
 10
-40.6400000000000006
 20
-26.6700000000000017
 30
0.0
 40
2.5
  0
LINE
  5
84
100
AcDbEntity
  8
circuits
 62
256
370
-1
 48
1.0
  6
BYLAYER
100
AcDbLine
 10
-51.894999999999996
 20
0.7399999999999984
 30
0.0
 11
-39.5450000000000017
 21
0.7399999999999984
 31
0.0
  0
LINE
  5
85
100
AcDbEntity
  8
circuits
 62
256
370
-1
 48
1.0
  6
BYLAYER
100
AcDbLine
 10
-39.5450000000000017
 20
0.7399999999999984
 30
0.0
 11
-39.5450000000000017
 21
17.0399999999999991
 31
0.0
  0
LINE
  5
86
100
AcDbEntity
  8
circuits
 62
256
370
-1
 48
1.0
  6
BYLAYER
100
AcDbLine
 10
-39.5450000000000017
 20
17.0399999999999991
 30
0.0
 11
-51.894999999999996
 21
17.0399999999999991
 31
0.0
  0
LINE
  5
87
100
AcDbEntity
  8
circuits
 62
256
370
-1
 48
1.0
  6
BYLAYER
100
AcDbLine
 10
-51.894999999999996
 20
17.0399999999999991
 30
0.0
 11
-51.894999999999996
 21
0.7399999999999984
 31
0.0
  0
LINE
  5
88
100
AcDbEntity
  8
circuits
 62
256
370
-1
 48
1.0
  6
BYLAYER
100
AcDbLine
 10
39.5450000000000017
 20
0.7399999999999984
 30
0.0
 11
51.894999999999996
 21
0.7399999999999984
 31
0.0
  0
LINE
  5
89
100
AcDbEntity
  8
circuits
 62
256
370
-1
 48
1.0
  6
BYLAYER
100
AcDbLine
 10
51.894999999999996
 20
0.7399999999999984
 30
0.0
 11
51.894999999999996
 21
17.0399999999999991
 31
0.0
  0
LINE
  5
8A
100
AcDbEntity
  8
circuits
 62
256
370
-1
 48
1.0
  6
BYLAYER
100
AcDbLine
 10
51.894999999999996
 20
17.0399999999999991
 30
0.0
 11
39.5450000000000017
 21
17.0399999999999991
 31
0.0
  0
LINE
  5
8B
100
AcDbEntity
  8
circuits
 62
256
370
-1
 48
1.0
  6
BYLAYER
100
AcDbLine
 10
39.5450000000000017
 20
17.0399999999999991
 30
0.0
 11
39.5450000000000017
 21
0.7399999999999984
 31
0.0
  0
LINE
  5
8C
100
AcDbEntity
  8
circuits
 62
256
370
-1
 48
1.0
  6
BYLAYER
100
AcDbLine
 10
-32.2749999999999915
 20
-37.9249999999999972
 30
0.0
 11
-18.5249999999999915
 21
-37.9249999999999972
 31
0.0
  0
LINE
  5
8D
100
AcDbEntity
  8
circuits
 62
256
370
-1
 48
1.0
  6
BYLAYER
100
AcDbLine
 10
-18.5249999999999915
 20
-37.9249999999999972
 30
0.0
 11
-18.5249999999999915
 21
-25.5749999999999886
 31
0.0
  0
LINE
  5
8E
100
AcDbEntity
  8
circuits
 62
256
370
-1
 48
1.0
  6
BYLAYER
100
AcDbLine
 10
-18.5249999999999915
 20
-25.5749999999999886
 30
0.0
 11
-32.2749999999999915
 21
-25.5749999999999886
 31
0.0
  0
LINE
  5
8F
100
AcDbEntity
  8
circuits
 62
256
370
-1
 48
1.0
  6
BYLAYER
100
AcDbLine
 10
-32.2749999999999915
 20
-25.5749999999999886
 30
0.0
 11
-32.2749999999999915
 21
-37.9249999999999972
 31
0.0
  0
LINE
  5
90
100
AcDbEntity
  8
circuits
 62
256
370
-1
 48
1.0
  6
BYLAYER
100
AcDbLine
 10
-32.2749999999999986
 20
25.5747797308700555
 30
0.0
 11
-18.5249999999999986
 21
25.5747797308700555
 31
0.0
  0
LINE
  5
91
100
AcDbEntity
  8
circuits
 62
256
370
-1
 48
1.0
  6
BYLAYER
100
AcDbLine
 10
-18.5249999999999986
 20
25.5747797308700555
 30
0.0
 11
-18.5249999999999986
 21
37.9247797308700569
 31
0.0
  0
LINE
  5
92
100
AcDbEntity
  8
circuits
 62
256
370
-1
 48
1.0
  6
BYLAYER
100
AcDbLine
 10
-18.5249999999999986
 20
37.9247797308700569
 30
0.0
 11
-32.2749999999999986
 21
37.9247797308700569
 31
0.0
  0
LINE
  5
93
100
AcDbEntity
  8
circuits
 62
256
370
-1
 48
1.0
  6
BYLAYER
100
AcDbLine
 10
-32.2749999999999986
 20
37.9247797308700569
 30
0.0
 11
-32.2749999999999986
 21
25.5747797308700555
 31
0.0
  0
LINE
  5
94
100
AcDbEntity
  8
circuits
 62
256
370
-1
 48
1.0
  6
BYLAYER
100
AcDbLine
 10
18.5250000000000057
 20
25.5749999999999851
 30
0.0
 11
32.2750000000000057
 21
25.5749999999999851
 31
0.0
  0
LINE
  5
95
100
AcDbEntity
  8
circuits
 62
256
370
-1
 48
1.0
  6
BYLAYER
100
AcDbLine
 10
32.2750000000000057
 20
25.5749999999999851
 30
0.0
 11
32.2750000000000057
 21
37.9249999999999901
 31
0.0
  0
LINE
  5
96
100
AcDbEntity
  8
circuits
 62
256
370
-1
 48
1.0
  6
BYLAYER
100
AcDbLine
 10
32.2750000000000057
 20
37.9249999999999901
 30
0.0
 11
18.5250000000000057
 21
37.9249999999999901
 31
0.0
  0
LINE
  5
97
100
AcDbEntity
  8
circuits
 62
256
370
-1
 48
1.0
  6
BYLAYER
100
AcDbLine
 10
18.5250000000000057
 20
37.9249999999999901
 30
0.0
 11
18.5250000000000057
 21
25.5749999999999851
 31
0.0
  0
LINE
  5
98
100
AcDbEntity
  8
circuits
 62
256
370
-1
 48
1.0
  6
BYLAYER
100
AcDbLine
 10
18.5249999999999986
 20
-37.9249999999999972
 30
0.0
 11
32.2749999999999986
 21
-37.9249999999999972
 31
0.0
  0
LINE
  5
99
100
AcDbEntity
  8
circuits
 62
256
370
-1
 48
1.0
  6
BYLAYER
100
AcDbLine
 10
32.2749999999999986
 20
-37.9249999999999972
 30
0.0
 11
32.2749999999999986
 21
-25.5749999999999993
 31
0.0
  0
LINE
  5
9A
100
AcDbEntity
  8
circuits
 62
256
370
-1
 48
1.0
  6
BYLAYER
100
AcDbLine
 10
32.2749999999999986
 20
-25.5749999999999993
 30
0.0
 11
18.5249999999999986
 21
-25.5749999999999993
 31
0.0
  0
LINE
  5
9B
100
AcDbEntity
  8
circuits
 62
256
370
-1
 48
1.0
  6
BYLAYER
100
AcDbLine
 10
18.5249999999999986
 20
-25.5749999999999993
 30
0.0
 11
18.5249999999999986
 21
-37.9249999999999972
 31
0.0
  0
LINE
  5
9C
100
AcDbEntity
  8
circuits
 62
256
370
-1
 48
1.0
  6
BYLAYER
100
AcDbLine
 10
-17.0249999999999915
 20
-37.9249999999999972
 30
0.0
 11
-8.3749999999999929
 21
-37.9249999999999972
 31
0.0
  0
LINE
  5
9D
100
AcDbEntity
  8
circuits
 62
256
370
-1
 48
1.0
  6
BYLAYER
100
AcDbLine
 10
-8.3749999999999929
 20
-37.9249999999999972
 30
0.0
 11
-8.3749999999999929
 21
-25.5749999999999993
 31
0.0
  0
LINE
  5
9E
100
AcDbEntity
  8
circuits
 62
256
370
-1
 48
1.0
  6
BYLAYER
100
AcDbLine
 10
-8.3749999999999929
 20
-25.5749999999999993
 30
0.0
 11
-17.0249999999999915
 21
-25.5749999999999993
 31
0.0
  0
LINE
  5
9F
100
AcDbEntity
  8
circuits
 62
256
370
-1
 48
1.0
  6
BYLAYER
100
AcDbLine
 10
-17.0249999999999915
 20
-25.5749999999999993
 30
0.0
 11
-17.0249999999999915
 21
-37.9249999999999972
 31
0.0
  0
LINE
  5
A0
100
AcDbEntity
  8
circuits
 62
256
370
-1
 48
1.0
  6
BYLAYER
100
AcDbLine
 10
8.375
 20
-37.9249999999999901
 30
0.0
 11
17.0249999999999986
 21
-37.9249999999999901
 31
0.0
  0
LINE
  5
A1
100
AcDbEntity
  8
circuits
 62
256
370
-1
 48
1.0
  6
BYLAYER
100
AcDbLine
 10
17.0249999999999986
 20
-25.5749999999999922
 30
0.0
 11
8.375
 21
-25.5749999999999922
 31
0.0
  0
LINE
  5
A2
100
AcDbEntity
  8
circuits
 62
256
370
-1
 48
1.0
  6
BYLAYER
100
AcDbLine
 10
8.375
 20
-25.5749999999999922
 30
0.0
 11
8.375
 21
-37.9249999999999901
 31
0.0
  0
LINE
  5
A3
100
AcDbEntity
  8
circuits
 62
256
370
-1
 48
1.0
  6
BYLAYER
100
AcDbLine
 10
17.0249999999999986
 20
-25.5749999999999993
 30
0.0
 11
17.0249999999999986
 21
-37.9249999999999972
 31
0.0
  0
LINE
  5
A4
100
AcDbEntity
  8
circuits
 62
256
370
-1
 48
1.0
  6
BYLAYER
100
AcDbLine
 10
39.519999999999996
 20
-19.5700000000000003
 30
0.0
 11
51.894999999999996
 21
-19.5700000000000003
 31
0.0
  0
LINE
  5
A5
100
AcDbEntity
  8
circuits
 62
256
370
-1
 48
1.0
  6
BYLAYER
100
AcDbLine
 10
51.894999999999996
 20
-19.5700000000000003
 30
0.0
 11
51.894999999999996
 21
-8.370000000000001
 31
0.0
  0
LINE
  5
A6
100
AcDbEntity
  8
circuits
 62
256
370
-1
 48
1.0
  6
BYLAYER
100
AcDbLine
 10
39.519999999999996
 20
-8.370000000000001
 30
0.0
 11
39.519999999999996
 21
-19.5700000000000003
 31
0.0
  0
LINE
  5
A7
100
AcDbEntity
  8
circuits
 62
256
370
-1
 48
1.0
  6
BYLAYER
100
AcDbLine
 10
39.5450000000000017
 20
-8.370000000000001
 30
0.0
 11
51.894999999999996
 21
-8.370000000000001
 31
0.0
  0
LINE
  5
A8
100
AcDbEntity
  8
circuits
 62
256
370
-1
 48
1.0
  6
BYLAYER
100
AcDbLine
 10
18.0368715323062894
 20
-21.6951159106226683
 30
0.0
 11
33.7768715323062878
 21
-21.6951159106226683
 31
0.0
  0
LINE
  5
A9
100
AcDbEntity
  8
circuits
 62
256
370
-1
 48
1.0
  6
BYLAYER
100
AcDbLine
 10
33.7768715323062878
 20
-21.6951159106226683
 30
0.0
 11
33.7768715323062878
 21
-0.875115910622668
 31
0.0
  0
LINE
  5
AA
100
AcDbEntity
  8
circuits
 62
256
370
-1
 48
1.0
  6
BYLAYER
100
AcDbLine
 10
33.7768715323062878
 20
-0.875115910622668
 30
0.0
 11
18.0368715323062894
 21
-0.875115910622668
 31
0.0
  0
LINE
  5
AB
100
AcDbEntity
  8
circuits
 62
256
370
-1
 48
1.0
  6
BYLAYER
100
AcDbLine
 10
18.0368715323062894
 20
-0.875115910622668
 30
0.0
 11
18.0368715323062894
 21
-21.6951159106226683
 31
0.0
  0
DIMENSION
  5
AC
100
AcDbEntity
  8
sizes
 62
256
370
-1
 48
1.0
  6
BYLAYER
100
AcDbDimension
 10
70.0
 20
-31.7500000000000036
 30
0.0
 11
68.125
 21
0.0000000000000002
 31
0.0
 70
1
 71
8
 72
2
 74
0
 75
0
 41
1.0
 42
0.0
  1

  3
Standard
100
AcDbAlignedDimension
 13
45.7199999999999989
 23
-31.7500000000000036
 33
0.0
 14
45.7199999999999989
 24
31.7500000000000036
 34
0.0
1001
ACAD
1000
DSTYLE
1002
{
1070
144
1040
1.0
1070
40
1040
1.0
1002
}
  0
DIMENSION
  5
AD
100
AcDbEntity
  8
sizes
 62
256
370
-1
 48
1.0
  6
BYLAYER
100
AcDbDimension
 10
45.7199999999999989
 20
60.0
 30
0.0
 11
0.0000000000000001
 21
61.875
 31
0.0
 70
1
 71
8
 72
2
 74
0
 75
0
 41
1.0
 42
0.0
  1

  3
Standard
100
AcDbAlignedDimension
 13
45.7199999999999989
 23
31.7500000000000036
 33
0.0
 14
-45.7199999999999989
 24
31.7500000000000036
 34
0.0
1001
ACAD
1000
DSTYLE
1002
{
1070
144
1040
1.0
1070
40
1040
1.0
1002
}
  0
DIMENSION
  5
AE
100
AcDbEntity
  8
sizes
 62
256
370
-1
 48
1.0
  6
BYLAYER
100
AcDbDimension
 10
-32.2749999999999986
 20
45.0533643986955354
 30
0.0
 11
-25.3999999999999986
 21
46.9283643986955354
 31
0.0
 70
1
 71
8
 72
2
 74
0
 75
0
 41
1.0
 42
0.0
  1

  3
Standard
100
AcDbAlignedDimension
 13
-32.2749999999999986
 23
37.9247797308700569
 33
0.0
 14
-18.5249999999999986
 24
37.9247797308700569
 34
0.0
1001
ACAD
1000
DSTYLE
1002
{
1070
144
1040
1.0
1070
40
1040
1.0
1002
}
  0
DIMENSION
  5
AF
100
AcDbEntity
  8
sizes
 62
256
370
-1
 48
1.0
  6
BYLAYER
100
AcDbDimension
 10
-9.2986197636395502
 20
37.9247797308700569
 30
0.0
 11
-11.1736197636395502
 21
31.7497797308700527
 31
0.0
 70
1
 71
8
 72
2
 74
0
 75
0
 41
1.0
 42
0.0
  1

  3
Standard
100
AcDbAlignedDimension
 13
-18.5249999999999986
 23
37.9247797308700569
 33
0.0
 14
-18.5249999999999986
 24
25.5747797308700555
 34
0.0
1001
ACAD
1000
DSTYLE
1002
{
1070
144
1040
1.0
1070
40
1040
1.0
1002
}
  0
DIMENSION
  5
B0
100
AcDbEntity
  8
sizes
 62
256
370
-1
 48
1.0
  6
BYLAYER
100
AcDbDimension
 10
-18.5249552100826627
 20
18.0409719760256486
 30
0.0
 11
0.0000336426863877
 21
19.916082110557479
 31
0.0
 70
1
 71
8
 72
2
 74
0
 75
0
 41
1.0
 42
0.0
  1

  3
Standard
100
AcDbAlignedDimension
 13
-18.5249999999999986
 23
25.5747797308700555
 33
0.0
 14
18.5250000000000092
 24
25.5749999999999851
 34
0.0
1001
ACAD
1000
DSTYLE
1002
{
1070
144
1040
1.0
1070
40
1040
1.0
1002
}
  0
DIMENSION
  5
B1
100
AcDbEntity
  8
sizes
 62
256
370
-1
 48
1.0
  6
BYLAYER
100
AcDbDimension
 10
-8.3749999999999929
 20
-20.0000000000000071
 30
0.0
 11
0.0000000000000037
 21
-18.1250000000000036
 31
0.0
 70
1
 71
8
 72
2
 74
0
 75
0
 41
1.0
 42
0.0
  1

  3
Standard
100
AcDbAlignedDimension
 13
-8.3749999999999929
 23
-25.5750000000000028
 33
0.0
 14
8.375
 24
-25.5749999999999957
 34
0.0
1001
ACAD
1000
DSTYLE
1002
{
1070
144
1040
1.0
1070
40
1040
1.0
1002
}
  0
DIMENSION
  5
B2
100
AcDbEntity
  8
sizes
 62
256
370
-1
 48
1.0
  6
BYLAYER
100
AcDbDimension
 10
-18.5249999999999915
 20
-40.6352996413709917
 30
0.0
 11
-11.8167167572842793
 21
-38.7602996413709917
 31
0.0
 70
1
 71
8
 72
2
 74
0
 75
0
 41
1.0
 42
0.0
  1

  3
Standard
100
AcDbAlignedDimension
 13
-18.5249999999999915
 23
-37.9249999999999972
 33
0.0
 14
-17.0249999999999915
 24
-37.9249999999999972
 34
0.0
1001
ACAD
1000
DSTYLE
1002
{
1070
144
1040
1.0
1070
40
1040
1.0
1002
}
  0
DIMENSION
  5
B3
100
AcDbEntity
  8
sizes
 62
256
370
-1
 48
1.0
  6
BYLAYER
100
AcDbDimension
 10
17.0249999999999986
 20
-42.1801143325228978
 30
0.0
 11
23.7332832427157108
 21
-40.3051143325229049
 31
0.0
 70
1
 71
8
 72
2
 74
0
 75
0
 41
1.0
 42
0.0
  1

  3
Standard
100
AcDbAlignedDimension
 13
17.0249999999999986
 23
-37.9249999999999901
 33
0.0
 14
18.5249999999999986
 24
-37.9249999999999972
 34
0.0
1001
ACAD
1000
DSTYLE
1002
{
1070
144
1040
1.0
1070
40
1040
1.0
1002
}
  0
DIMENSION
  5
B4
100
AcDbEntity
  8
sizes
 62
256
370
-1
 48
1.0
  6
BYLAYER
100
AcDbDimension
 10
-61.3014960240734155
 20
0.7399999999999995
 30
0.0
 11
-63.1764960240734155
 21
8.8899999999999988
 31
0.0
 70
1
 71
8
 72
2
 74
0
 75
0
 41
1.0
 42
0.0
  1

  3
Standard
100
AcDbAlignedDimension
 13
-51.894999999999996
 23
0.7399999999999984
 33
0.0
 14
-51.894999999999996
 24
17.0399999999999991
 34
0.0
1001
ACAD
1000
DSTYLE
1002
{
1070
144
1040
1.0
1070
40
1040
1.0
1002
}
  0
DIMENSION
  5
B5
100
AcDbEntity
  8
sizes
 62
256
370
-1
 48
1.0
  6
BYLAYER
100
AcDbDimension
 10
38.1400000000000006
 20
22.5451216274065906
 30
0.0
 11
48.6260410665682627
 21
24.4201216274065906
 31
0.0
 70
1
 71
8
 72
2
 74
0
 75
0
 41
1.0
 42
0.0
  1

  3
Standard
100
AcDbAlignedDimension
 13
38.1400000000000006
 23
26.6700000000000017
 33
0.0
 14
43.1400000000000006
 24
26.6700000000000017
 34
0.0
1001
ACAD
1000
DSTYLE
1002
{
1070
144
1040
1.0
1070
40
1040
1.0
1002
}
  0
LINE
  5
B6
100
AcDbEntity
  8
circuits
 62
256
370
-1
 48
1.0
  6
BYLAYER
100
AcDbLine
 10
-8.399999999999995
 20
26.1349999999999945
 30
0.0
 11
5.3500000000000059
 21
26.1349999999999945
 31
0.0
  0
LINE
  5
B7
100
AcDbEntity
  8
circuits
 62
256
370
-1
 48
1.0
  6
BYLAYER
100
AcDbLine
 10
5.3500000000000059
 20
26.1349999999999945
 30
0.0
 11
5.3500000000000059
 21
32.2849999999999966
 31
0.0
  0
LINE
  5
B8
100
AcDbEntity
  8
circuits
 62
256
370
-1
 48
1.0
  6
BYLAYER
100
AcDbLine
 10
5.3500000000000059
 20
32.2849999999999966
 30
0.0
 11
-8.399999999999995
 21
32.2849999999999966
 31
0.0
  0
LINE
  5
B9
100
AcDbEntity
  8
circuits
 62
256
370
-1
 48
1.0
  6
BYLAYER
100
AcDbLine
 10
-8.399999999999995
 20
32.2849999999999966
 30
0.0
 11
-8.399999999999995
 21
26.1349999999999945
 31
0.0
  0
DIMENSION
  5
BA
100
AcDbEntity
  8
sizes
 62
256
370
-1
 48
1.0
  6
BYLAYER
100
AcDbDimension
 10
-8.399999999999995
 20
34.0
 30
0.0
 11
-1.5249999999999944
 21
35.875
 31
0.0
 70
1
 71
8
 72
2
 74
0
 75
0
 41
1.0
 42
0.0
  1

  3
Standard
100
AcDbAlignedDimension
 13
-8.399999999999995
 23
32.2849999999999966
 33
0.0
 14
5.3500000000000059
 24
32.2849999999999966
 34
0.0
1001
ACAD
1000
DSTYLE
1002
{
1070
144
1040
1.0
1070
40
1040
1.0
1002
}
  0
DIMENSION
  5
BB
100
AcDbEntity
  8
sizes
 62
256
370
-1
 48
1.0
  6
BYLAYER
100
AcDbDimension
 10
10.463327072041249
 20
26.1349999999999945
 30
0.0
 11
8.588327072041249
 21
37.4933031966409303
 31
0.0
 70
1
 71
8
 72
2
 74
0
 75
0
 41
1.0
 42
0.0
  1

  3
Standard
100
AcDbAlignedDimension
 13
5.3500000000000059
 23
26.1349999999999945
 33
0.0
 14
5.3500000000000059
 24
32.2849999999999966
 34
0.0
1001
ACAD
1000
DSTYLE
1002
{
1070
144
1040
1.0
1070
40
1040
1.0
1002
}
  0
DIMENSION
  5
BC
100
AcDbEntity
  8
sizes
 62
256
370
-1
 48
1.0
  6
BYLAYER
100
AcDbDimension
 10
5.3500000000000068
 20
46.3127687523775364
 30
0.0
 11
11.9375000000000071
 21
48.1877687523775364
 31
0.0
 70
1
 71
8
 72
2
 74
0
 75
0
 41
1.0
 42
0.0
  1

  3
Standard
100
AcDbAlignedDimension
 13
5.3500000000000059
 23
32.2849999999999966
 33
0.0
 14
18.5250000000000057
 24
32.2849999999999966
 34
0.0
1001
ACAD
1000
DSTYLE
1002
{
1070
144
1040
1.0
1070
40
1040
1.0
1002
}
  0
ENDBLK
  5
BD
100
AcDbEntity
  8
0
100
AcDbBlockEnd
  0
BLOCK
  5
BE
100
AcDbEntity
  8
0
100
AcDbBlockBegin
  2
raspi
 70
0
 10
0.0
 20
0.0
 30
0.0
  3
raspi
  1

  0
LINE
  5
BF
100
AcDbEntity
  8
circuits
 62
256
370
-1
 48
1.0
  6
BYLAYER
100
AcDbLine
 10
-39.5
 20
-28.0
 30
0.0
 11
39.5
 21
-28.0
 31
0.0
  0
LINE
  5
C0
100
AcDbEntity
  8
circuits
 62
256
370
-1
 48
1.0
  6
BYLAYER
100
AcDbLine
 10
42.5
 20
-25.0
 30
0.0
 11
42.5
 21
25.0
 31
0.0
  0
LINE
  5
C1
100
AcDbEntity
  8
circuits
 62
256
370
-1
 48
1.0
  6
BYLAYER
100
AcDbLine
 10
39.5
 20
28.0
 30
0.0
 11
-39.5
 21
28.0
 31
0.0
  0
LINE
  5
C2
100
AcDbEntity
  8
circuits
 62
256
370
-1
 48
1.0
  6
BYLAYER
100
AcDbLine
 10
-42.5
 20
25.0
 30
0.0
 11
-42.5
 21
-25.0
 31
0.0
  0
ARC
  5
C3
100
AcDbEntity
  8
circuits
 62
256
370
-1
 48
1.0
  6
BYLAYER
100
AcDbCircle
 10
-39.5
 20
25.0
 30
0.0
 40
3.0
100
AcDbArc
 50
90.0
 51
180.0
  0
ARC
  5
C4
100
AcDbEntity
  8
circuits
 62
256
370
-1
 48
1.0
  6
BYLAYER
100
AcDbCircle
 10
39.5
 20
25.0
 30
0.0
 40
3.0
100
AcDbArc
 50
0.0
 51
90.0
  0
ARC
  5
C5
100
AcDbEntity
  8
circuits
 62
256
370
-1
 48
1.0
  6
BYLAYER
100
AcDbCircle
 10
39.5
 20
-25.0
 30
0.0
 40
3.0
100
AcDbArc
 50
270.0
 51
0.0
  0
ARC
  5
C6
100
AcDbEntity
  8
circuits
 62
256
370
-1
 48
1.0
  6
BYLAYER
100
AcDbCircle
 10
-39.5
 20
-25.0
 30
0.0
 40
3.0
100
AcDbArc
 50
180.0
 51
270.0
  0
CIRCLE
  5
C7
100
AcDbEntity
  8
circuits
 62
256
370
-1
 48
1.0
  6
BYLAYER
100
AcDbCircle
 10
-39.0
 20
-24.5
 30
0.0
 40
0.0
  0
CIRCLE
  5
C8
100
AcDbEntity
  8
circuits
 62
256
370
-1
 48
1.0
  6
BYLAYER
100
AcDbCircle
 10
-19.0
 20
-13.0
 30
0.0
 40
0.0
  0
CIRCLE
  5
C9
100
AcDbEntity
  8
circuits
 62
256
370
-1
 48
1.0
  6
BYLAYER
100
AcDbCircle
 10
-9.0
 20
-19.0
 30
0.0
 40
0.0
  0
CIRCLE
  5
CA
100
AcDbEntity
  8
circuits
 62
256
370
-1
 48
1.0
  6
BYLAYER
100
AcDbCircle
 10
-11.0
 20
-14.0
 30
0.0
 40
0.0
  0
CIRCLE
  5
CB
100
AcDbEntity
  8
circuits
 62
256
370
-1
 48
1.0
  6
BYLAYER
100
AcDbCircle
 10
-20.0
 20
-19.0
 30
0.0
 40
0.0
  0
CIRCLE
  5
CC
100
AcDbEntity
  8
circuits
 62
256
370
-1
 48
1.0
  6
BYLAYER
100
AcDbCircle
 10
-36.4269690162905491
 20
-22.5137860862053785
 30
0.0
 40
0.0
  0
CIRCLE
  5
CD
100
AcDbEntity
  8
circuits
 62
256
370
-1
 48
1.0
  6
BYLAYER
100
AcDbCircle
 10
-22.0
 20
-19.0
 30
0.0
 40
0.0
  0
CIRCLE
  5
CE
100
AcDbEntity
  8
circuits
 62
256
370
-1
 48
1.0
  6
BYLAYER
100
AcDbCircle
 10
-15.67141890233232
 20
-20.6316057653122726
 30
0.0
 40
0.0
  0
CIRCLE
  5
CF
100
AcDbEntity
  8
circuits
 62
256
370
-1
 48
1.0
  6
BYLAYER
100
AcDbCircle
 10
-15.67141890233232
 20
-20.6316057653122726
 30
0.0
 40
0.0
  0
CIRCLE
  5
D0
100
AcDbEntity
  8
circuits
 62
256
370
-1
 48
1.0
  6
BYLAYER
100
AcDbCircle
 10
-11.0
 20
-12.0
 30
0.0
 40
0.0
  0
CIRCLE
  5
D1
100
AcDbEntity
  8
circuits
 62
256
370
-1
 48
1.0
  6
BYLAYER
100
AcDbCircle
 10
-10.0
 20
-17.0
 30
0.0
 40
0.0
  0
CIRCLE
  5
D2
100
AcDbEntity
  8
circuits
 62
256
370
-1
 48
1.0
  6
BYLAYER
100
AcDbCircle
 10
-28.0
 20
-15.0
 30
0.0
 40
0.0
  0
CIRCLE
  5
D3
100
AcDbEntity
  8
circuits
 62
256
370
-1
 48
1.0
  6
BYLAYER
100
AcDbCircle
 10
-39.0
 20
-24.5
 30
0.0
 40
0.0
  0
CIRCLE
  5
D4
100
AcDbEntity
  8
circuits
 62
256
370
-1
 48
1.0
  6
BYLAYER
100
AcDbCircle
 10
-19.0
 20
-13.0
 30
0.0
 40
0.0
  0
CIRCLE
  5
D5
100
AcDbEntity
  8
circuits
 62
256
370
-1
 48
1.0
  6
BYLAYER
100
AcDbCircle
 10
-9.0
 20
-19.0
 30
0.0
 40
0.0
  0
CIRCLE
  5
D6
100
AcDbEntity
  8
circuits
 62
256
370
-1
 48
1.0
  6
BYLAYER
100
AcDbCircle
 10
-11.0
 20
-14.0
 30
0.0
 40
0.0
  0
CIRCLE
  5
D7
100
AcDbEntity
  8
circuits
 62
256
370
-1
 48
1.0
  6
BYLAYER
100
AcDbCircle
 10
-20.0
 20
-19.0
 30
0.0
 40
0.0
  0
CIRCLE
  5
D8
100
AcDbEntity
  8
circuits
 62
256
370
-1
 48
1.0
  6
BYLAYER
100
AcDbCircle
 10
-36.4269690162905491
 20
-22.5137860862053785
 30
0.0
 40
0.0
  0
CIRCLE
  5
D9
100
AcDbEntity
  8
circuits
 62
256
370
-1
 48
1.0
  6
BYLAYER
100
AcDbCircle
 10
-22.0
 20
-19.0
 30
0.0
 40
0.0
  0
CIRCLE
  5
DA
100
AcDbEntity
  8
circuits
 62
256
370
-1
 48
1.0
  6
BYLAYER
100
AcDbCircle
 10
-15.67141890233232
 20
-20.6316057653122726
 30
0.0
 40
0.0
  0
CIRCLE
  5
DB
100
AcDbEntity
  8
circuits
 62
256
370
-1
 48
1.0
  6
BYLAYER
100
AcDbCircle
 10
-15.67141890233232
 20
-20.6316057653122726
 30
0.0
 40
0.0
  0
CIRCLE
  5
DC
100
AcDbEntity
  8
circuits
 62
256
370
-1
 48
1.0
  6
BYLAYER
100
AcDbCircle
 10
-11.0
 20
-12.0
 30
0.0
 40
0.0
  0
CIRCLE
  5
DD
100
AcDbEntity
  8
circuits
 62
256
370
-1
 48
1.0
  6
BYLAYER
100
AcDbCircle
 10
-10.0
 20
-17.0
 30
0.0
 40
0.0
  0
CIRCLE
  5
DE
100
AcDbEntity
  8
circuits
 62
256
370
-1
 48
1.0
  6
BYLAYER
100
AcDbCircle
 10
-28.0
 20
-15.0
 30
0.0
 40
0.0
  0
CIRCLE
  5
DF
100
AcDbEntity
  8
circuits
 62
256
370
-1
 48
1.0
  6
BYLAYER
100
AcDbCircle
 10
-39.0
 20
-24.5
 30
0.0
 40
3.0
  0
CIRCLE
  5
E0
100
AcDbEntity
  8
circuits
 62
256
370
-1
 48
1.0
  6
BYLAYER
100
AcDbCircle
 10
-39.0
 20
24.5
 30
0.0
 40
3.0
  0
CIRCLE
  5
E1
100
AcDbEntity
  8
circuits
 62
256
370
-1
 48
1.0
  6
BYLAYER
100
AcDbCircle
 10
19.0
 20
24.5
 30
0.0
 40
3.0
  0
CIRCLE
  5
E2
100
AcDbEntity
  8
circuits
 62
256
370
-1
 48
1.0
  6
BYLAYER
100
AcDbCircle
 10
19.0
 20
-24.5
 30
0.0
 40
3.0
  0
CIRCLE
  5
E3
100
AcDbEntity
  8
circuits
 62
256
370
-1
 48
1.0
  6
BYLAYER
100
AcDbCircle
 10
-39.0
 20
24.5
 30
0.0
 40
1.3500000000000014
  0
CIRCLE
  5
E4
100
AcDbEntity
  8
circuits
 62
256
370
-1
 48
1.0
  6
BYLAYER
100
AcDbCircle
 10
-39.0
 20
-24.5
 30
0.0
 40
1.3500000000000014
  0
CIRCLE
  5
E5
100
AcDbEntity
  8
circuits
 62
256
370
-1
 48
1.0
  6
BYLAYER
100
AcDbCircle
 10
19.0
 20
-24.5
 30
0.0
 40
1.3500000000000014
  0
CIRCLE
  5
E6
100
AcDbEntity
  8
circuits
 62
256
370
-1
 48
1.0
  6
BYLAYER
100
AcDbCircle
 10
19.0
 20
24.5
 30
0.0
 40
1.3500000000000014
  0
LINE
  5
E7
100
AcDbEntity
  8
circuits
 62
256
370
-1
 48
1.0
  6
BYLAYER
100
AcDbLine
 10
-35.2999999999999972
 20
21.9999999999999964
 30
0.0
 11
14.7000000000000011
 21
21.9999999999999964
 31
0.0
  0
LINE
  5
E8
100
AcDbEntity
  8
circuits
 62
256
370
-1
 48
1.0
  6
BYLAYER
100
AcDbLine
 10
14.7000000000000011
 20
21.9999999999999964
 30
0.0
 11
14.7000000000000011
 21
26.9999999999999964
 31
0.0
  0
LINE
  5
E9
100
AcDbEntity
  8
circuits
 62
256
370
-1
 48
1.0
  6
BYLAYER
100
AcDbLine
 10
14.7000000000000011
 20
26.9999999999999964
 30
0.0
 11
-35.2999999999999972
 21
26.9999999999999964
 31
0.0
  0
LINE
  5
EA
100
AcDbEntity
  8
circuits
 62
256
370
-1
 48
1.0
  6
BYLAYER
100
AcDbLine
 10
-35.2999999999999972
 20
26.9999999999999964
 30
0.0
 11
-35.2999999999999972
 21
21.9999999999999964
 31
0.0
  0
DIMENSION
  5
EB
100
AcDbEntity
  8
sizes
 62
256
370
-1
 48
1.0
  6
BYLAYER
100
AcDbDimension
 10
-42.5
 20
-41.3158104247843525
 30
0.0
 11
0.0000000000000001
 21
-39.4408104247843525
 31
0.0
 70
1
 71
8
 72
2
 74
0
 75
0
 41
1.0
 42
0.0
  1

  3
Standard
100
AcDbAlignedDimension
 13
-42.5
 23
-25.0
 33
0.0
 14
42.5
 24
-25.0
 34
0.0
1001
ACAD
1000
DSTYLE
1002
{
1070
144
1040
1.0
1070
40
1040
1.0
1002
}
  0
DIMENSION
  5
EC
100
AcDbEntity
  8
sizes
 62
256
370
-1
 48
1.0
  6
BYLAYER
100
AcDbDimension
 10
56.0
 20
-28.0
 30
0.0
 11
54.125
 21
0.0000000000000002
 31
0.0
 70
1
 71
8
 72
2
 74
0
 75
0
 41
1.0
 42
0.0
  1

  3
Standard
100
AcDbAlignedDimension
 13
39.5
 23
-28.0
 33
0.0
 14
39.5
 24
28.0
 34
0.0
1001
ACAD
1000
DSTYLE
1002
{
1070
144
1040
1.0
1070
40
1040
1.0
1002
}
  0
DIMENSION
  5
ED
100
AcDbEntity
  8
sizes
 62
256
370
-1
 48
1.0
  6
BYLAYER
100
AcDbDimension
 10
17.6499999999999986
 20
11.5516002739935111
 30
0.0
 11
25.8360610204934886
 21
13.4266002739935111
 31
0.0
 70
1
 71
8
 72
2
 74
0
 75
0
 41
1.0
 42
0.0
  1

  3
Standard
100
AcDbAlignedDimension
 13
17.6499999999999986
 23
24.5
 33
0.0
 14
20.3500000000000014
 24
24.5
 34
0.0
1001
ACAD
1000
DSTYLE
1002
{
1070
144
1040
1.0
1070
40
1040
1.0
1002
}
  0
DIMENSION
  5
EE
100
AcDbEntity
  8
sizes
 62
256
370
-1
 48
1.0
  6
BYLAYER
100
AcDbDimension
 10
16.0
 20
35.5120285961159396
 30
0.0
 11
27.4860410665682657
 21
37.3870285961159396
 31
0.0
 70
1
 71
8
 72
2
 74
0
 75
0
 41
1.0
 42
0.0
  1

  3
Standard
100
AcDbAlignedDimension
 13
16.0
 23
24.5
 33
0.0
 14
22.0
 24
24.5
 34
0.0
1001
ACAD
1000
DSTYLE
1002
{
1070
144
1040
1.0
1070
40
1040
1.0
1002
}
  0
DIMENSION
  5
EF
100
AcDbEntity
  8
sizes
 62
256
370
-1
 48
1.0
  6
BYLAYER
100
AcDbDimension
 10
-49.1824454329998133
 20
-24.5
 30
0.0
 11
-51.0574454329998133
 21
0.0000000000000002
 31
0.0
 70
1
 71
8
 72
2
 74
0
 75
0
 41
1.0
 42
0.0
  1

  3
Standard
100
AcDbAlignedDimension
 13
-39.0
 23
-24.5
 33
0.0
 14
-39.0
 24
24.5
 34
0.0
1001
ACAD
1000
DSTYLE
1002
{
1070
144
1040
1.0
1070
40
1040
1.0
1002
}
  0
DIMENSION
  5
F0
100
AcDbEntity
  8
sizes
 62
256
370
-1
 48
1.0
  6
BYLAYER
100
AcDbDimension
 10
-39.0
 20
-17.0000000000000036
 30
0.0
 11
-10.0
 21
-15.125
 31
0.0
 70
1
 71
8
 72
2
 74
0
 75
0
 41
1.0
 42
0.0
  1

  3
Standard
100
AcDbAlignedDimension
 13
-39.0
 23
-24.5000000000000036
 33
0.0
 14
19.0
 24
-24.5
 34
0.0
1001
ACAD
1000
DSTYLE
1002
{
1070
144
1040
1.0
1070
40
1040
1.0
1002
}
  0
ENDBLK
  5
F1
100
AcDbEntity
  8
0
100
AcDbBlockEnd
  0
ENDSEC
  0
SECTION
  2
ENTITIES
  0
INSERT
  5
F2
100
AcDbEntity
  8
sizes
 62
256
370
-1
 48
1.0
  6
BYLAYER
100
AcDbBlockReference
  2
pwr-supply
 10
0.0
 20
0.0
 30
0.0
  0
ENDSEC
  0
SECTION
  2
OBJECTS
  0
DICTIONARY
  5
C
100
AcDbDictionary
280
0
281
1
  3
ACAD_GROUP
350
D
  3
ACAD_LAYOUT
350
1A
  3
ACAD_MLINESTYLE
350
17
  3
ACAD_PLOTSETTINGS
350
19
  3
ACAD_PLOTSTYLENAME
350
E
  3
AcDbVariableDictionary
350
F3
  3
QCAD_OBJECTS
350
F4
  0
DICTIONARY
  5
D
100
AcDbDictionary
280
0
281
1
  0
ACDBDICTIONARYWDFLT
  5
E
100
AcDbDictionary
281
1
  3
Normal
350
F
100
AcDbDictionaryWithDefault
340
F
  0
ACDBPLACEHOLDER
  5
F
  0
DICTIONARY
  5
17
100
AcDbDictionary
280
0
281
1
  3
Standard
350
18
  0
MLINESTYLE
  5
18
100
AcDbMlineStyle
  2
STANDARD
 70
0
  3

 62
256
 51
90.0
 52
90.0
 71
2
 49
0.5
 62
256
  6
BYLAYER
 49
-0.5
 62
256
  6
BYLAYER
  0
DICTIONARY
  5
19
100
AcDbDictionary
280
0
281
1
  0
DICTIONARY
  5
1A
100
AcDbDictionary
281
1
  3
Layout1
350
1E
  3
Layout2
350
26
  3
Model
350
22
  0
LAYOUT
  5
1E
100
AcDbPlotSettings
  1

  2
none_device
  4

  6

 40
0.0
 41
0.0
 42
0.0
 43
0.0
 44
0.0
 45
0.0
 46
0.0
 47
0.0
 48
0.0
 49
0.0
140
0.0
141
0.0
142
1.0
143
1.0
 70
688
 72
0
 73
0
 74
5
  7

 75
16
147
1.0
148
0.0
149
0.0
100
AcDbLayout
  1
Layout1
 70
1
 71
1
 10
0.0
 20
0.0
 11
420.0
 21
297.0
 12
0.0
 22
0.0
 32
0.0
 14
100000000000000000000.0
 24
100000000000000000000.0
 34
100000000000000000000.0
 15
-100000000000000000000.0
 25
-100000000000000000000.0
 35
-100000000000000000000.0
146
0.0
 13
0.0
 23
0.0
 33
0.0
 16
1.0
 26
0.0
 36
0.0
 17
0.0
 27
1.0
 37
0.0
 76
0
330
1B
  0
LAYOUT
  5
22
100
AcDbPlotSettings
  1

  2
none_device
  4

  6

 40
0.0
 41
0.0
 42
0.0
 43
0.0
 44
0.0
 45
0.0
 46
0.0
 47
0.0
 48
0.0
 49
0.0
140
0.0
141
0.0
142
1.0
143
1.0
 70
1712
 72
0
 73
0
 74
0
  7

 75
0
147
1.0
148
0.0
149
0.0
100
AcDbLayout
  1
Model
 70
1
 71
0
 10
0.0
 20
0.0
 11
12.0
 21
9.0
 12
0.0
 22
0.0
 32
0.0
 14
0.0
 24
0.0
 34
0.0
 15
0.0
 25
0.0
 35
0.0
146
0.0
 13
0.0
 23
0.0
 33
0.0
 16
1.0
 26
0.0
 36
0.0
 17
0.0
 27
1.0
 37
0.0
 76
0
330
1F
  0
LAYOUT
  5
26
100
AcDbPlotSettings
  1

  2
none_device
  4

  6

 40
0.0
 41
0.0
 42
0.0
 43
0.0
 44
0.0
 45
0.0
 46
0.0
 47
0.0
 48
0.0
 49
0.0
140
0.0
141
0.0
142
1.0
143
1.0
 70
688
 72
0
 73
0
 74
5
  7

 75
16
147
1.0
148
0.0
149
0.0
100
AcDbLayout
  1
Layout2
 70
1
 71
2
 10
0.0
 20
0.0
 11
12.0
 21
9.0
 12
0.0
 22
0.0
 32
0.0
 14
0.0
 24
0.0
 34
0.0
 15
0.0
 25
0.0
 35
0.0
146
0.0
 13
0.0
 23
0.0
 33
0.0
 16
1.0
 26
0.0
 36
0.0
 17
0.0
 27
1.0
 37
0.0
 76
0
330
23
  0
DICTIONARY
  5
F3
100
AcDbDictionary
281
1
  3
DIMASSOC
350
F6
  3
HIDETEXT
350
F5
  0
DICTIONARYVAR
  5
F5
100
DictionaryVariables
280
0
  1
2
  0
DICTIONARYVAR
  5
F6
100
DictionaryVariables
280
0
  1
1
  0
DICTIONARY
  5
F4
100
AcDbDictionary
281
1
  3
ColorSettings/BackgroundColor
350
F7
  3
ColorSettings/ColorMode
350
F8
  3
DimensionSettings/AngularFormat
350
F9
  3
DimensionSettings/AngularPrecision
350
FA
  3
DimensionSettings/DecimalPoint
350
FB
  3
DimensionSettings/DimensionFont
350
FC
  3
DimensionSettings/DimensionTextColor
350
FD
  3
DimensionSettings/KeepProportions
350
FE
  3
DimensionSettings/LinearFormat
350
FF
  3
DimensionSettings/LinearPrecision
350
100
  3
Grid/DisplayGrid00
350
101
  3
Grid/DisplayGrid01
350
102
  3
Grid/DisplayGrid02
350
103
  3
Grid/DisplayGrid03
350
104
  3
Grid/GridSpacingX00
350
105
  3
Grid/GridSpacingX01
350
106
  3
Grid/GridSpacingX02
350
107
  3
Grid/GridSpacingX03
350
108
  3
Grid/GridSpacingY00
350
109
  3
Grid/GridSpacingY01
350
10A
  3
Grid/GridSpacingY02
350
10B
  3
Grid/GridSpacingY03
350
10C
  3
Grid/IsometricGrid00
350
10D
  3
Grid/IsometricGrid01
350
10E
  3
Grid/IsometricGrid02
350
10F
  3
Grid/IsometricGrid03
350
110
  3
Grid/IsometricProjection00
350
111
  3
Grid/IsometricProjection01
350
112
  3
Grid/IsometricProjection02
350
113
  3
Grid/IsometricProjection03
350
114
  3
Grid/MetaGridSpacingX00
350
115
  3
Grid/MetaGridSpacingX01
350
116
  3
Grid/MetaGridSpacingX02
350
117
  3
Grid/MetaGridSpacingX03
350
118
  3
Grid/MetaGridSpacingY00
350
119
  3
Grid/MetaGridSpacingY01
350
11A
  3
Grid/MetaGridSpacingY02
350
11B
  3
Grid/MetaGridSpacingY03
350
11C
  3
MultiPageSettings/Columns
350
11D
  3
MultiPageSettings/GlueMarginsBottom
350
11E
  3
MultiPageSettings/GlueMarginsLeft
350
11F
  3
MultiPageSettings/GlueMarginsRight
350
120
  3
MultiPageSettings/GlueMarginsTop
350
121
  3
MultiPageSettings/PrintCropMarks
350
122
  3
MultiPageSettings/Rows
350
123
  3
PageSettings/OffsetX
350
124
  3
PageSettings/OffsetY
350
125
  3
PageSettings/PageOrientation
350
126
  3
PageSettings/PaperHeight
350
127
  3
PageSettings/PaperWidth
350
128
  3
PageSettings/Scale
350
129
  3
PageSettings/ShowPaperBorders
350
12A
  3
PageTagSettings/EnablePageTags
350
12B
  3
PageTagSettings/TagAlignment
350
12C
  3
PageTagSettings/TagFont
350
12D
  3
PageTagSettings/TagPosition
350
12E
  3
QCADVersion
350
12F
  3
UnitSettings/PaperUnit
350
130
  3
ViewportCenter
350
131
  3
ViewportHeight
350
132
  3
ViewportWidth
350
133
  0
XRECORD
  5
F7
330
F4
100
AcDbXrecord
280
1
1000
White
  0
XRECORD
  5
F8
330
F4
100
AcDbXrecord
280
1
1000
FullColor
  0
XRECORD
  5
F9
330
F4
100
AcDbXrecord
280
1
 90
0
  0
XRECORD
  5
FA
330
F4
100
AcDbXrecord
280
1
 90
0
  0
XRECORD
  5
FB
330
F4
100
AcDbXrecord
280
1
 90
46
  0
XRECORD
  5
FC
330
F4
100
AcDbXrecord
280
1
1000
DejaVu Sans
  0
XRECORD
  5
FD
330
F4
100
AcDbXrecord
280
1
1000
By Layer
  0
XRECORD
  5
FE
330
F4
100
AcDbXrecord
280
1
290
1
  0
XRECORD
  5
FF
330
F4
100
AcDbXrecord
280
1
 90
2
  0
XRECORD
  5
100
330
F4
100
AcDbXrecord
280
1
 90
4
  0
XRECORD
  5
101
330
F4
100
AcDbXrecord
280
1
290
1
  0
XRECORD
  5
102
330
F4
100
AcDbXrecord
280
1
290
1
  0
XRECORD
  5
103
330
F4
100
AcDbXrecord
280
1
290
1
  0
XRECORD
  5
104
330
F4
100
AcDbXrecord
280
1
290
1
  0
XRECORD
  5
105
330
F4
100
AcDbXrecord
280
1
1000
auto
  0
XRECORD
  5
106
330
F4
100
AcDbXrecord
280
1
1000
auto
  0
XRECORD
  5
107
330
F4
100
AcDbXrecord
280
1
1000
auto
  0
XRECORD
  5
108
330
F4
100
AcDbXrecord
280
1
1000
auto
  0
XRECORD
  5
109
330
F4
100
AcDbXrecord
280
1
1000
auto
  0
XRECORD
  5
10A
330
F4
100
AcDbXrecord
280
1
1000
auto
  0
XRECORD
  5
10B
330
F4
100
AcDbXrecord
280
1
1000
auto
  0
XRECORD
  5
10C
330
F4
100
AcDbXrecord
280
1
1000
auto
  0
XRECORD
  5
10D
330
F4
100
AcDbXrecord
280
1
290
0
  0
XRECORD
  5
10E
330
F4
100
AcDbXrecord
280
1
290
0
  0
XRECORD
  5
10F
330
F4
100
AcDbXrecord
280
1
290
0
  0
XRECORD
  5
110
330
F4
100
AcDbXrecord
280
1
290
0
  0
XRECORD
  5
111
330
F4
100
AcDbXrecord
280
1
 90
65537
  0
XRECORD
  5
112
330
F4
100
AcDbXrecord
280
1
 90
65537
  0
XRECORD
  5
113
330
F4
100
AcDbXrecord
280
1
 90
65537
  0
XRECORD
  5
114
330
F4
100
AcDbXrecord
280
1
 90
65537
  0
XRECORD
  5
115
330
F4
100
AcDbXrecord
280
1
1000
auto
  0
XRECORD
  5
116
330
F4
100
AcDbXrecord
280
1
1000
auto
  0
XRECORD
  5
117
330
F4
100
AcDbXrecord
280
1
1000
auto
  0
XRECORD
  5
118
330
F4
100
AcDbXrecord
280
1
1000
auto
  0
XRECORD
  5
119
330
F4
100
AcDbXrecord
280
1
1000
auto
  0
XRECORD
  5
11A
330
F4
100
AcDbXrecord
280
1
1000
auto
  0
XRECORD
  5
11B
330
F4
100
AcDbXrecord
280
1
1000
auto
  0
XRECORD
  5
11C
330
F4
100
AcDbXrecord
280
1
1000
auto
  0
XRECORD
  5
11D
330
F4
100
AcDbXrecord
280
1
 90
1
  0
XRECORD
  5
11E
330
F4
100
AcDbXrecord
280
1
 40
10.0
  0
XRECORD
  5
11F
330
F4
100
AcDbXrecord
280
1
 40
10.0
  0
XRECORD
  5
120
330
F4
100
AcDbXrecord
280
1
 40
10.0
  0
XRECORD
  5
121
330
F4
100
AcDbXrecord
280
1
 40
10.0
  0
XRECORD
  5
122
330
F4
100
AcDbXrecord
280
1
290
0
  0
XRECORD
  5
123
330
F4
100
AcDbXrecord
280
1
 90
1
  0
XRECORD
  5
124
330
F4
100
AcDbXrecord
280
1
 40
0.0
  0
XRECORD
  5
125
330
F4
100
AcDbXrecord
280
1
 40
0.0
  0
XRECORD
  5
126
330
F4
100
AcDbXrecord
280
1
1000
Portrait
  0
XRECORD
  5
127
330
F4
100
AcDbXrecord
280
1
 40
297.0
  0
XRECORD
  5
128
330
F4
100
AcDbXrecord
280
1
 40
210.0
  0
XRECORD
  5
129
330
F4
100
AcDbXrecord
280
1
1000
1:1
  0
XRECORD
  5
12A
330
F4
100
AcDbXrecord
280
1
290
1
  0
XRECORD
  5
12B
330
F4
100
AcDbXrecord
280
1
290
0
  0
XRECORD
  5
12C
330
F4
100
AcDbXrecord
280
1
1000
Inside
  0
XRECORD
  5
12D
330
F4
100
AcDbXrecord
280
1
1000
Arial,10,-1,5,50,0,0,0,0,0
  0
XRECORD
  5
12E
330
F4
100
AcDbXrecord
280
1
1000
TopLeft
  0
XRECORD
  5
12F
330
F4
100
AcDbXrecord
280
1
1000
3.28.1.3
  0
XRECORD
  5
130
330
F4
100
AcDbXrecord
280
1
 90
4
  0
XRECORD
  5
132
330
F4
100
AcDbXrecord
280
1
 40
157.5490297161930471
  0
XRECORD
  5
133
330
F4
100
AcDbXrecord
280
1
 40
362.1928387312173072
  0
ENDSEC
  0
EOF
